# xmcd
#
# Track frame offsets: 
#        150
#        24613
#        46915
#        64357
#        81618
#        102009
#        123965
#        152756
#        174466
#        194740
#        211101
#        235604
#        262548
#
# Disc length: 3873 seconds
#
# Revision: 0
# Processed by: cddbd v1.5.2PL0 Copyright (c) Steve Scherf et al.
# Submitted via: ExactAudioCopyFreeDBPlugin 1.0
#
DISCID=a80f1f0d
DTITLE=Sweeter Than Wine - Breathe
DYEAR=1997
DGENRE=Alternative
TTITLE0=On The Horizon
TTITLE1=Lost And Found
TTITLE2=Train
TTITLE3=Back To You
TTITLE4=Waiting
TTITLE5=Running Wild
TTITLE6=Change Is On The Wind
TTITLE7=Passion Game
TTITLE8=Taxi To L.A.
TTITLE9=The Spanish Song
TTITLE10=People
TTITLE11=One Lonely Dream
TTITLE12=The Monster Song-Dunkin
EXTD=
EXTT0=
EXTT1=
EXTT2=
EXTT3=
EXTT4=
EXTT5=
EXTT6=
EXTT7=
EXTT8=
EXTT9=
EXTT10=
EXTT11=
EXTT12=
PLAYORDER=
